<?xml version="1.0" encoding="UTF-8" standalone="no"?>
<svg width="61px" height="40px" viewBox="0 0 61 40" version="1.1" xmlns="http://www.w3.org/2000/svg" xmlns:xlink="http://www.w3.org/1999/xlink" xmlns:sketch="http://www.bohemiancoding.com/sketch/ns">
    <!-- Generator: Sketch Beta 3.3 (11751) - http://www.bohemiancoding.com/sketch -->
    <title>fish</title>
    <desc>Created with Sketch Beta.</desc>
    <defs></defs>
    <g id="Page-1" stroke="none" stroke-width="1" fill="none" fill-rule="evenodd" sketch:type="MSPage">
        <g id="fish" sketch:type="MSLayerGroup">
            <g id="Page-1" sketch:type="MSShapeGroup">
                <g id="Group">
                    <path d="M48,11.6666667 C46.4666667,10.4666667 33.4666667,0.133333333 29.4666667,0.4 C39.6,7.06666667 29.4666667,11.3333333 29.1333333,12.6666667 C32.1333333,11.2 35.6,10.1333333 39.3333333,10.1333333 C41.8666667,10.1333333 45,10.6666667 48,11.6666667 L48,11.6666667 L48,11.6666667 Z" id="Shape" fill="#E27824"></path>
                    <path d="M33.8666667,34.6666667 L33.8666667,34.6666667 C33.8666667,34.6666667 35,38 30.3333333,39.6 C28,40.4 46.8666667,34.0666667 46.8666667,34.0666667 C44,34.8 41,35.4666667 38.7333333,35.4666667 C37,35.4666667 35.4,35.0666667 33.8666667,34.6666667 L33.8666667,34.6666667 L33.8666667,34.6666667 Z" id="Shape" fill="#E27824"></path>
                    <path d="M1,11.4666667 C0.6,12.1333333 11.6,16.6 11.1333333,22 C10.6666667,27.1333333 0.133333333,29.5333333 0.466666667,30.2666667 C0.466666667,30.2666667 16.8666667,25.6 17.1333333,22.6 C17.4666667,18.6666667 1,11.4666667 1,11.4666667 L1,11.4666667 L1,11.4666667 Z" id="Shape" fill="#E27824"></path>
                    <g transform="translate(18.000000, 10.666667)">
                        <path d="M21.2666667,0.2 C10,0.2 0.866666667,9.86666667 0.4,11.8 L0.4,12.2 C1.33333333,13.3333333 10.3333333,23.9333333 21.2666667,23.9333333 C28.8,23.9333333 42.2,18.6 42.2,12.0666667 C42.2,5.53333333 28.8,0.2 21.2666667,0.2 L21.2666667,0.2 L21.2666667,0.2 Z M7.13333333,12.5333333 C7.13333333,10.4 8.86666667,8.66666667 11,8.66666667 C11.3333333,8.66666667 11.6666667,8.73333333 12,8.8 C10,8.86666667 8.4,10.5333333 8.4,12.5333333 C8.4,14.5333333 10,16.2 12,16.2666667 C11.6666667,16.3333333 11.4,16.4 11,16.4 C8.86666667,16.4 7.13333333,14.6666667 7.13333333,12.5333333 L7.13333333,12.5333333 L7.13333333,12.5333333 Z M21.6666667,8.06666667 C21.3333333,8.13333333 21.0666667,8.2 20.6666667,8.2 C21,8.2 21.3333333,8.26666667 21.6666667,8.33333333 C19.6666667,8.4 18.0666667,10.0666667 18.0666667,12.0666667 C18.0666667,14.0666667 19.6666667,15.7333333 21.6666667,15.8 C21.4,15.8666667 21.1333333,15.9333333 20.8666667,15.9333333 C21.1333333,15.9333333 21.3333333,16 21.6,16.0666667 C19.6,16.1333333 18,17.8 18,19.8 C18,21.8 19.6,23.4666667 21.6,23.5333333 C21.2666667,23.6 21,23.6666667 20.6,23.6666667 C18.6,23.6666667 16.9333333,22.1333333 16.7333333,20.1333333 C16.4666667,20.2 16.1333333,20.2666667 15.8,20.2666667 C13.6666667,20.2666667 11.9333333,18.5333333 11.9333333,16.4 C11.9333333,14.2666667 13.6666667,12.5333333 15.8,12.5333333 C13.6666667,12.5333333 11.9333333,10.8 11.9333333,8.66666667 C11.9333333,6.53333333 13.6666667,4.8 15.8,4.8 C16.1333333,4.8 16.4666667,4.86666667 16.8,4.93333333 C14.8,5 13.2,6.66666667 13.2,8.66666667 C13.2,10.6666667 14.8,12.3333333 16.8,12.4 C16.4666667,12.4666667 16.2,12.5333333 15.8,12.5333333 C16.1333333,12.5333333 16.4666667,12.6 16.8,12.6666667 C14.8,12.7333333 13.2,14.4 13.2,16.4 C13.2,18.4 14.8,20.0666667 16.8,20.1333333 L16.8,19.8 C16.8,17.7333333 18.4,16.0666667 20.4666667,15.9333333 C18.4666667,15.8 16.8666667,14.1333333 16.8666667,12.0666667 C16.8666667,9.93333333 18.6,8.2 20.7333333,8.2 C18.6,8.2 16.8666667,6.46666667 16.8666667,4.33333333 C16.8666667,2.2 18.6,0.466666667 20.7333333,0.466666667 C21.0666667,0.466666667 21.4,0.533333333 21.7333333,0.6 C19.7333333,0.666666667 18.1333333,2.33333333 18.1333333,4.33333333 C18.1333333,6.33333333 19.6666667,8 21.6666667,8.06666667 L21.6666667,8.06666667 L21.6666667,8.06666667 Z M34,11.6 C32.6666667,11.6 31.5333333,10.5333333 31.5333333,9.13333333 C31.5333333,7.73333333 32.6,6.66666667 34,6.66666667 C35.3333333,6.66666667 36.4666667,7.73333333 36.4666667,9.13333333 C36.4666667,10.5333333 35.3333333,11.6 34,11.6 L34,11.6 L34,11.6 Z" id="Shape" fill="#F6A623"></path>
                        <ellipse id="Oval" fill="#E27825" cx="34" cy="9.13333333" rx="1.13333333" ry="1.13333333"></ellipse>
                        <path id="Shape" fill="#000000" d="M20.4,15.9333333 L20.7333333,15.9333333 L20.9333333,15.9333333 L20.6666667,15.9333333 L20.4,15.9333333 L20.4,15.9333333 Z"></path>
                    </g>
                </g>
            </g>
        </g>
    </g>
</svg>