<?xml version="1.0" encoding="UTF-8" standalone="no"?>
<svg width="207px" height="160px" viewBox="0 0 207 160" version="1.1" xmlns="http://www.w3.org/2000/svg" xmlns:xlink="http://www.w3.org/1999/xlink" xmlns:sketch="http://www.bohemiancoding.com/sketch/ns">
    <!-- Generator: Sketch Beta 3.3 (11751) - http://www.bohemiancoding.com/sketch -->
    <title>logo-up-o</title>
    <desc>Created with Sketch Beta.</desc>
    <defs></defs>
    <g id="Page-1" stroke="none" stroke-width="1" fill="none" fill-rule="evenodd" sketch:type="MSPage">
        <g id="logo-up-o" sketch:type="MSLayerGroup" transform="translate(5.000000, 5.000000)">
            <path d="M98.2631444,149.222798 C139.368156,149.222798 196.526289,127.24699 196.526289,86.1917844 C196.526289,45.1365791 148.359295,0.548748009 98.2631444,0.548748009 C48.1669934,0.548748009 0,45.1365791 0,86.1917844 C0,127.24699 57.1581333,149.222798 98.2631444,149.222798 Z" id="Oval-3" stroke="#FFFFFF" stroke-width="5" sketch:type="MSShapeGroup"></path>
            <path d="M39.9973475,81.7162587 C39.9973475,106.419901 50.2815359,117.136093 69.3807429,117.136093 C88.47995,117.136093 98.5381123,106.419901 98.5381123,81.7162587 L98.5381123,42.2355517 L82.4902578,42.2355517 L82.4902578,83.408289 C82.4902578,97.8469476 77.6306963,102.810236 69.3807429,102.810236 C61.1307896,102.810236 56.6102672,97.8469476 56.6102672,83.408289 L56.6102672,42.2355517 L39.9973475,42.2355517 L39.9973475,81.7162587 Z M110.013425,115.782469 L126.739358,115.782469 L126.739358,90.8532223 L136.910534,90.8532223 C152.506336,90.8532223 165.728864,83.182685 165.728864,65.9239759 C165.728864,48.1012567 152.958388,42.2355517 136.910534,42.2355517 L110.013425,42.2355517 L110.013425,115.782469 Z M126.739358,77.655386 L126.739358,55.433388 L135.893416,55.433388 C144.708435,55.433388 149.454983,58.2534385 149.454983,65.9239759 C149.454983,73.5945133 145.047474,77.655386 135.893416,77.655386 L126.739358,77.655386 Z" id="UP" fill="#FFFFFF" sketch:type="MSShapeGroup"></path>
        </g>
    </g>
</svg>