<?xml version="1.0" encoding="UTF-8" standalone="no"?>
<svg width="164px" height="116px" viewBox="0 0 164 116" version="1.1" xmlns="http://www.w3.org/2000/svg" xmlns:xlink="http://www.w3.org/1999/xlink" xmlns:sketch="http://www.bohemiancoding.com/sketch/ns">
    <!-- Generator: Sketch 3.2.2 (9983) - http://www.bohemiancoding.com/sketch -->
    <title>Oval 2</title>
    <desc>Created with Sketch.</desc>
    <defs>
        <linearGradient x1="50%" y1="0%" x2="50%" y2="100%" id="linearGradient-1">
            <stop stop-color="#FC6334" offset="0%"></stop>
            <stop stop-color="#FF001F" offset="53.4126845%"></stop>
            <stop stop-color="#C60000" offset="100%"></stop>
        </linearGradient>
    </defs>
    <g id="Page-1" stroke="none" stroke-width="1" fill="none" fill-rule="evenodd" sketch:type="MSPage">
        <g id="Desktop" sketch:type="MSArtboardGroup" transform="translate(-364.000000, -725.000000)" fill="url(#linearGradient-1)">
            <path d="M446,840.176224 C496.810197,840.176224 528,798.986421 528,748.176224 C528,697.366027 496.810197,746.176224 446,746.176224 C395.189803,746.176224 364,697.366027 364,748.176224 C364,798.986421 395.189803,840.176224 446,840.176224 Z M451.846517,796.278783 C451.846517,800.034877 451.210066,803.453458 449.937143,806.534629 C448.664221,809.615799 446.843673,812.256763 444.475445,814.4576 C442.107217,816.658436 439.250585,818.375063 435.905463,819.607531 C432.560341,820.839999 428.84524,821.456224 424.760047,821.456224 C420.615648,821.456224 416.885745,820.839999 413.570226,819.607531 C410.254707,818.375063 407.442478,816.658436 405.133456,814.4576 C402.824434,812.256763 401.04829,809.615799 399.80497,806.534629 C398.56165,803.453458 397.94,800.034877 397.94,796.278783 L397.94,757.456224 L413.037377,757.456224 L413.037377,795.04632 C413.037377,796.7483 413.259395,798.362223 413.703438,799.888136 C414.147481,801.414049 414.828336,802.778547 415.746024,803.981671 C416.663713,805.184795 417.877411,806.138476 419.387156,806.842744 C420.896902,807.547012 422.71745,807.89914 424.848855,807.89914 C426.98026,807.89914 428.800808,807.547012 430.310553,806.842744 C431.820298,806.138476 433.048798,805.184795 433.996089,803.981671 C434.94338,802.778547 435.624236,801.414049 436.038675,799.888136 C436.453115,798.362223 436.660332,796.7483 436.660332,795.04632 L436.660332,757.456224 L451.846517,757.456224 L451.846517,796.278783 Z M509.275757,776.647421 C509.275757,780.286137 508.594902,783.352589 507.233171,785.846871 C505.87144,788.341152 504.036091,790.351219 501.727068,791.877132 C499.418046,793.403045 496.75383,794.518119 493.734339,795.222386 C490.714849,795.926654 487.576994,796.278783 484.320681,796.278783 L476.771992,796.278783 L476.771992,819.783597 L461.585807,819.783597 L461.585807,757.456224 L484.675913,757.456224 C488.109843,757.456224 491.321704,757.793681 494.311592,758.468604 C497.30148,759.143527 499.906491,760.229257 502.126705,761.725825 C504.346918,763.222394 506.09346,765.188445 507.366383,767.624037 C508.639305,770.059629 509.275757,773.067394 509.275757,776.647421 Z M494.089572,776.735454 C494.089572,775.26823 493.793548,774.065124 493.201491,773.1261 C492.609434,772.187077 491.810169,771.453476 490.803672,770.925275 C489.797175,770.397074 488.657482,770.044946 487.38456,769.868879 C486.111638,769.692812 484.794331,769.60478 483.4326,769.60478 L476.771992,769.60478 L476.771992,784.306293 L483.166175,784.306293 C484.587112,784.306293 485.948823,784.188917 487.251348,783.954161 C488.553873,783.719405 489.723168,783.308588 490.759268,782.721699 C491.795368,782.134809 492.609434,781.357192 493.201491,780.388824 C493.793548,779.420456 494.089572,778.202678 494.089572,776.735454 Z" id="Oval-2" sketch:type="MSShapeGroup"></path>
        </g>
    </g>
</svg>